<?xml version="1.0" encoding="UTF-8"?>
<svg xmlns="http://www.w3.org/2000/svg" version="1.1" viewBox="0 0 120 23.9">
  <defs>
    <style>
      .cls-1 {
        fill: #afafaf;
      }
    </style>
  </defs>
  <!-- Generator: Adobe Illustrator 28.7.1, SVG Export Plug-In . SVG Version: 1.2.0 Build 142)  -->
  <g>
    <g id="Layer_1">
      <g id="Layer_2">
        <g id="Layer_1-2">
          <path class="cls-1" d="M25.2,7.8v8.8c.1,2-.6,4-1.9,5.4-1.5,1.4-3.4,2.1-5.5,1.9-1,0-2-.2-3-.5-.9-.4-1.6-1-2.2-1.7-.6.8-1.3,1.3-2.2,1.7-1,.4-2,.6-3.1.5-2,.1-4-.6-5.4-1.9-1.3-1.5-2-3.4-1.9-5.4V7.8h4.6v8.4c0,1,.2,2,.7,2.9.5.6,1.3,1,2.1.9.8,0,1.7-.3,2.2-.9.5-.9.8-1.9.7-2.9V7.8h4.6v8.4c0,1,.2,2,.7,2.9.5.7,1.3,1,2.2.9.8,0,1.6-.3,2.1-.9.5-.9.8-1.9.7-2.9V7.8h4.6Z"/>
          <path class="cls-1" d="M27.5,7.8h4.6v15.9h-4.6V7.8Z"/>
          <path class="cls-1" d="M99.7,0v2.9l4.6,1.7V0h-4.6Z"/>
          <path class="cls-1" d="M49.1,9.3c1.3,1.4,2,3.3,1.8,5.2v9.1h-4.6v-8.4c0-1-.2-2-.8-2.8-.6-.7-1.5-1-2.4-.9-1,0-2,.3-2.8,1.1-.7.9-1.1,2-1,3.2v7.8h-4.6V7.8h4.4v1.9c.6-.7,1.4-1.2,2.3-1.6,1-.4,2-.6,3-.5,1.7,0,3.4.6,4.7,1.8Z"/>
          <path class="cls-1" d="M69.6,0v23.6h-4.4v-1.8c-1.2,1.4-3.1,2.2-5,2.1-1.4,0-2.8-.3-4-1-1.2-.7-2.2-1.7-2.9-2.9-.7-1.3-1-2.8-1-4.3,0-1.5.3-3,1-4.3.7-1.2,1.6-2.2,2.8-2.9,1.2-.7,2.6-1,4-1,1.8-.1,3.6.6,4.8,1.9V0h4.6ZM64,18.9c.8-.9,1.2-2,1.2-3.2,0-1.2-.4-2.3-1.2-3.2-.7-.8-1.8-1.2-2.9-1.2-1.1,0-2.2.4-2.9,1.2-.8.9-1.2,2-1.2,3.2,0,1.2.4,2.3,1.2,3.2.8.8,1.8,1.2,2.9,1.2,1.1,0,2.2-.4,2.9-1.2Z"/>
          <path class="cls-1" d="M99.7,7.8h4.6v15.9h-4.6V7.8Z"/>
          <path class="cls-1" d="M27.5,0v2.9l4.6,1.7V0h-4.6Z"/>
          <path class="cls-1" d="M106.8,23.6V0h4.6v23.6"/>
          <path class="cls-1" d="M115.4,23.6V0h4.6v23.6"/>
          <path class="cls-1" d="M72.1,23.6v-8.8c-.1-2,.6-4,1.9-5.4,1.5-1.3,3.5-2,5.5-1.9,1,0,2,.2,3,.5.9.4,1.6.9,2.2,1.7.6-.8,1.3-1.4,2.2-1.7,1-.4,2-.6,3.1-.5,2-.1,4,.5,5.5,1.9,1.3,1.5,2,3.4,1.9,5.4v8.8h-4.6v-8.4c0-1-.2-2-.7-2.9-.5-.6-1.3-1-2.1-.9-.8,0-1.7.3-2.2.9-.5.9-.8,1.9-.7,2.9v8.4h-4.6v-8.4c0-1-.2-2-.7-2.9-.5-.7-1.3-1-2.2-.9-.8,0-1.6.3-2.1.9-.5.9-.7,1.9-.7,2.9v8.4h-4.6Z"/>
        </g>
      </g>
    </g>
  </g>
</svg>