<?xml version="1.0" encoding="UTF-8"?>
<svg xmlns="http://www.w3.org/2000/svg" version="1.1" viewBox="0 0 165 37.8">
  <defs>
    <style>
      .cls-1 {
        fill: #afafaf;
      }
    </style>
  </defs>
  <!-- Generator: Adobe Illustrator 28.7.1, SVG Export Plug-In . SVG Version: 1.2.0 Build 142)  -->
  <g>
    <g id="Layer_1">
      <g id="Layer_1-2" data-name="Layer_1">
        <path class="cls-1" d="M72.5,14.7c1.8,0,3.4.3,4.7.9,1.3.6,2.3,1.4,2.9,2.5.7,1.1,1,2.4,1,4s-.3,2.9-1,4-1.7,2-2.9,2.5c-1.3.6-2.8.9-4.7.9h-4.4v7.4h-5.8V14.7h10.3,0ZM71.6,25.2c1.2,0,2.1-.2,2.7-.7s.9-1.3.9-2.3-.3-1.8-.9-2.3-1.5-.8-2.7-.8h-3.5v6.2h3.5Z"/>
        <path class="cls-1" d="M83.5,37.1V14.7h17.4v4.5h-11.6v4.5h9.2v4.2h-9.2v4.6h12v4.5h-17.8Z"/>
        <path class="cls-1" d="M114.2,14.7c2.7,0,4.7.6,6.2,1.9,1.5,1.2,2.2,2.9,2.2,5s-.7,4-2.2,5.2c-1.5,1.2-3.5,1.8-6.2,1.8l-.5.3h-4.4v8.2h-5.7V14.7h10.7,0ZM113.4,24.8c1.1,0,2-.2,2.5-.7.6-.5.8-1.2.8-2.2s-.3-1.7-.8-2.1c-.6-.5-1.4-.7-2.5-.7h-4.1v5.7s4.1,0,4.1,0ZM116.8,26l7.1,11.1h-6.4l-5.7-9.8,5-1.3Z"/>
        <path class="cls-1" d="M144,14.7v4.5h-7.3v17.8h-5.8v-17.8h-7.3v-4.5h20.4Z"/>
        <path class="cls-1" d="M154.3,14.4c2.1,0,3.9.3,5.5,1,1.6.6,3,1.6,4.2,2.8l-2.8,3.8c-1-1-2-1.8-3.1-2.3s-2.4-.8-3.8-.8-1.5,0-2,.3c-.5.2-.9.4-1.1.7-.2.3-.3.7-.3,1.1s.2.9.6,1.2c.5.3,1.2.6,2.2.8l3.8.8c2.2.5,3.9,1.3,4.9,2.3s1.6,2.3,1.6,4-.4,2.9-1.2,4-1.9,1.9-3.4,2.5c-1.4.5-3,.8-4.9.8s-2.9-.2-4.3-.5c-1.4-.3-2.6-.8-3.7-1.4-1.1-.6-2-1.3-2.7-2.1l2.8-3.9c.6.7,1.3,1.2,2.1,1.8.8.5,1.7.9,2.7,1.2s2,.4,3,.4,1.4,0,2-.2c.5-.2.9-.4,1.2-.7.2-.3.4-.7.4-1.1s-.2-.9-.5-1.2c-.3-.3-1-.6-1.9-.8l-4.1-.9c-1.3-.3-2.4-.7-3.4-1.2s-1.7-1.2-2.3-2-.8-1.9-.8-3.1.4-2.6,1.2-3.7,1.9-2,3.3-2.6c1.4-.6,3.2-.9,5.2-.9h-.4Z"/>
        <path class="cls-1" d="M38.5,16.1l5.7-1.9c.6-.1,2.7-.4,3.7,2.6.5,1.8,1.1,3.6,1.7,5.3.8-1.6,2.2-4.1,3.6-5.5,1.4-1.4,3.2-2.8,5.2-1.9,1.9.9,2.7,4.6-1.2,6.1-.4-.6-.7-.9-.9-1.2-.3-.4-.4-.7-.9-1.2-1.2.5-3.3,2.6-4.8,6.1v.3c.8,2.3,1.4,4.5,2,6.1.6,2,1.6,2.8,2.8,3.2.7.2,1.4,0,2.1,0s.6,0,.9,0v1.7l-3.7,1c-.9.2-3.1.5-4.3-.3-1.7-1.2-3.1-4.5-3.7-7.8h0c-1.3,2.3-3.6,6.5-5.8,7.6s-4.5,0-4.8-1.7c-.3-1.6.3-3.2,2.7-4l1.9,2.4c2.2-1.5,4-4.3,5.1-6.7h0c-.2-.7-.4-1.4-.7-2-.9-2.7-1.9-5.4-2.4-6.1-.9-.2-2.8-.3-4.1-.3v-1.6h0Z"/>
        <path class="cls-1" d="M28.6,5.3C25.6,2.1,21.2.5,15.5.5H0v5h28.8s-.1,0-.2-.2Z"/>
        <path class="cls-1" d="M29,5.7l-13.8,31.3h.2c5.7,0,10.1-1.6,13.1-4.8,3.1-3.2,4.6-7.7,4.6-13.5s-1.4-9.9-4.2-13.1h.1Z"/>
        <path class="cls-1" d="M6.4,37.1l10.6-24.7H0v24.7h6.4Z"/>
      </g>
    </g>
  </g>
</svg>