<?xml version="1.0" encoding="UTF-8"?>
<svg id="Layer_2" xmlns="http://www.w3.org/2000/svg" viewBox="0 0 494.26 77">
  <defs>
    <style>
      .cls-1 {
        fill: #fff;
      }
    </style>
  </defs>
  <g id="Layer_1-2" data-name="Layer_1">
    <g>
      <path class="cls-1" d="M68.57,60.5l20.03-44.1h10.65l19.97,44.1h-12.54l-10.21-22.62c-.46-1.01-.87-1.96-1.23-2.87-.36-.9-.68-1.77-.98-2.61-.29-.84-.58-1.69-.85-2.55-.27-.86-.54-1.75-.79-2.68l2.33-.06c-.29,1.01-.57,1.94-.82,2.8s-.55,1.71-.88,2.55c-.34.84-.69,1.7-1.07,2.58-.38.88-.78,1.83-1.2,2.83l-10.14,22.62h-12.28ZM78.15,53.57l3.78-8.82h23.88l2.46,8.82h-30.11Z"/>
      <path class="cls-1" d="M129.05,60.5V16.4h23.18c3.53,0,6.54.59,9.04,1.76,2.5,1.18,4.42,2.83,5.76,4.95,1.34,2.12,2.02,4.63,2.02,7.53s-.71,5.54-2.14,7.81c-1.43,2.27-3.38,4.04-5.86,5.32-2.48,1.28-5.29,1.92-8.44,1.92h-11.84v14.8h-11.72ZM140.77,36.75h10.27c1.09,0,2.06-.22,2.9-.66.84-.44,1.51-1.05,2.02-1.83.5-.78.76-1.71.76-2.8s-.26-2.07-.79-2.8c-.53-.73-1.24-1.29-2.14-1.67-.9-.38-1.94-.57-3.12-.57h-9.89v10.33ZM157.15,60.5l-13.36-19.91,12.92-1.57,14.62,21.48h-14.17Z"/>
      <path class="cls-1" d="M181.59,60.5v-8.13l27.15-30.49,5.86,5.86h-31.37v-11.34h38.87v8.06l-27.09,30.56-5.86-5.23h33.64v10.71h-41.2Z"/>
      <path class="cls-1" d="M236.27,60.5V16.4h36.98v10.27h-25.01v23.56h25.96v10.27h-37.93ZM242.57,42.99v-9.7h28.16v9.7h-28.16Z"/>
      <path class="cls-1" d="M288.69,60.5V16.4h11.53l26.33,29.36-2.21-.63c-.25-1.68-.44-3.2-.57-4.57-.13-1.36-.24-2.66-.35-3.88-.11-1.22-.19-2.39-.25-3.53-.06-1.13-.09-2.31-.09-3.53v-13.23h12.03v44.1h-11.66l-27.97-31.5,3.97,1.07c.17,1.09.33,2.1.47,3.03.15.92.26,1.86.35,2.8.08.95.17,1.96.25,3.06.08,1.09.14,2.33.16,3.72.02,1.39.03,2.96.03,4.73v13.1h-12.03Z"/>
      <path class="cls-1" d="M352.13,60.5v-10.46h10.14v-23.18h-10.14v-10.46h32.7v10.46h-10.08v23.18h10.08v10.46h-32.7Z"/>
      <path class="cls-1" d="M424.39,61.13c-3.74,0-7.19-.55-10.36-1.64s-5.94-2.66-8.32-4.69c-2.37-2.04-4.21-4.46-5.51-7.28-1.3-2.81-1.95-5.92-1.95-9.32s.67-6.45,2.02-9.26c1.34-2.81,3.19-5.24,5.54-7.28,2.35-2.04,5.11-3.61,8.29-4.73,3.17-1.11,6.62-1.67,10.36-1.67,2.48,0,4.88.27,7.21.82,2.33.55,4.5,1.32,6.52,2.33,2.02,1.01,3.78,2.21,5.29,3.59l-7.25,9.26c-.88-.84-1.91-1.62-3.09-2.33-1.18-.71-2.51-1.28-4-1.7-1.49-.42-3.2-.63-5.13-.63-1.68,0-3.29.25-4.82.76-1.53.5-2.91,1.25-4.13,2.24-1.22.99-2.18,2.21-2.9,3.65-.71,1.45-1.07,3.14-1.07,5.07s.37,3.5,1.1,4.95c.73,1.45,1.77,2.67,3.12,3.65,1.34.99,2.87,1.73,4.57,2.24s3.52.76,5.45.76,3.65-.26,5.17-.79,2.86-1.18,4.03-1.95c1.17-.78,2.23-1.52,3.15-2.24l5.86,9.45c-1.18,1.09-2.76,2.15-4.76,3.18-2,1.03-4.23,1.88-6.71,2.55-2.48.67-5.04,1.01-7.69,1.01Z"/>
      <path class="cls-1" d="M473.97,61.13c-3.49,0-6.66-.34-9.51-1.01-2.86-.67-5.4-1.6-7.62-2.77-2.23-1.17-4.22-2.52-5.99-4.03l6.05-9.13c3.07,2.52,6.13,4.25,9.2,5.2,3.07.95,5.92,1.42,8.57,1.42,1.05,0,2.09-.09,3.12-.28,1.03-.19,1.9-.51,2.61-.98.71-.46,1.07-1.13,1.07-2.02,0-.59-.19-1.08-.57-1.48-.38-.4-.89-.73-1.54-1.01-.65-.27-1.41-.5-2.27-.69-.86-.19-1.82-.36-2.87-.5-1.05-.15-2.16-.28-3.34-.41-2.77-.38-5.25-.94-7.43-1.7-2.18-.76-4.03-1.7-5.54-2.84-1.51-1.13-2.66-2.47-3.43-4-.78-1.53-1.17-3.31-1.17-5.32,0-2.22.52-4.23,1.58-6.02,1.05-1.78,2.52-3.3,4.41-4.54,1.89-1.24,4.06-2.17,6.52-2.8s5.05-.94,7.78-.94c3.23,0,6.05.28,8.44.85,2.39.57,4.47,1.34,6.24,2.33,1.76.99,3.25,2.09,4.47,3.31l-6.3,7.88c-1.13-.84-2.42-1.55-3.87-2.14s-2.95-1.04-4.5-1.36c-1.55-.31-3.04-.47-4.47-.47s-2.74.1-3.81.32c-1.07.21-1.93.54-2.58.98-.65.44-.98,1.04-.98,1.79,0,.67.33,1.23.98,1.67.65.44,1.47.8,2.46,1.07.99.27,2.02.48,3.09.63,1.07.15,2.05.28,2.93.41,2.44.29,4.78.71,7.02,1.26,2.25.55,4.24,1.31,5.99,2.3,1.74.99,3.11,2.3,4.09,3.94.99,1.64,1.48,3.74,1.48,6.3,0,3.15-.89,5.83-2.68,8.03s-4.21,3.88-7.28,5.04c-3.07,1.16-6.51,1.73-10.33,1.73Z"/>
    </g>
  </g>
  <g id="Layer_2-2" data-name="Layer_2">
    <path class="cls-1" d="M52.7,47.54l-24.25,16.27v.39l2.4-1.67c.85-.59,1.95-.65,2.87-.18.92.48,1.49,1.43,1.49,2.46v5.32c0,.89-.44,1.74-1.16,2.26l-5.74,4.09c-.49.35-1.05.52-1.61.52-.66,0-1.31-.23-1.84-.69l-4.57-4.03c-.57-.51-.91-1.24-.94-2.01l-.3-10.88c-.02-.98.47-1.91,1.29-2.43l7.55-4.78-.92-.59-7.92,5.42c-.94.64-2.16.65-3.1.02L1.24,47.25c-1.02-.67-1.48-1.96-1.12-3.13l5.29-17.16-3.03-6.61c-.55-1.19-.2-2.58.86-3.38,1.05-.79,2.48-.74,3.48.13l7.77,6.74c.8.7,1.14,1.82.85,2.85l-4.2,15.01,7.29,4.32,4.33-3.05.3-24.17c-.95.33-2,.13-2.76-.55-.86-.76-1.16-1.94-.77-3.02L24.39,1.83c.39-1.1,1.4-1.82,2.57-1.83h.04c1.15,0,2.16.69,2.58,1.77l5.29,13.56c.43,1.09.13,2.3-.74,3.08-.83.74-1.98.91-2.97.47v24.38l4.88,3.09,7.1-4.92-3.93-14.8c-.26-.99.04-2.04.79-2.74l7.1-6.62c.97-.91,2.41-1,3.49-.24,1.09.77,1.48,2.16.94,3.38l-2.72,6.22,5.02,17.85c.32,1.16-.13,2.39-1.13,3.06Z"/>
  </g>
</svg>