<?xml version="1.0" encoding="UTF-8"?>
<svg xmlns="http://www.w3.org/2000/svg" version="1.1" viewBox="0 0 200 39">
  <defs>
    <style>
      .cls-1 {
        fill-rule: evenodd;
      }

      .cls-1, .cls-2 {
        fill: #afafaf;
      }
    </style>
  </defs>
  <!-- Generator: Adobe Illustrator 28.7.1, SVG Export Plug-In . SVG Version: 1.2.0 Build 142)  -->
  <g>
    <g id="Layer_1">
      <path class="cls-2" d="M19.3.7h4.6v29.4h-4.6V.7Z"/>
      <path class="cls-2" d="M27,8.7h4.3v3.7c1.3-2.6,3.8-4.1,7.3-4.1s7.3,2.9,7.3,7.7v14.2h-4.5v-13.5c0-3-1.8-4.4-4.3-4.4s-5.7,2.3-5.7,6.3v11.5h-4.5V8.7h0Z"/>
      <path class="cls-2" d="M48,23.5h4.5c.5,2.5,2.7,3.5,5.5,3.5s4.1-.8,4.1-2.6-1.6-2.4-3.9-2.8l-2.9-.5c-3.4-.6-6.9-1.9-6.9-6.3s3.4-6.5,8.5-6.5,8.7,2.3,9.1,6.8h-4.5c-.2-2.3-2.1-3.3-4.8-3.3s-4,1-4,2.7,1.6,2.5,3.8,2.9l3,.5c3.4.6,6.9,1.7,6.9,6s-3.9,6.7-8.7,6.7-9.4-2.1-9.9-7.1Z"/>
      <path class="cls-1" d="M73.3,8.7h-4.3v29.5h4.5v-11.6c1.1,1.9,3.2,3.5,6.9,3.5,5.3,0,9.7-3.4,9.7-10.9s-4.3-10.9-9.5-10.9-6.2,1.8-7.2,4.5v-4.1ZM85.4,19.2c0,4.8-2.6,6.8-6,6.8s-6.1-2.1-6.1-6.8,2.7-6.7,6.1-6.7,6,2,6,6.7Z"/>
      <path class="cls-1" d="M97.1.2h-4.8v4.9h4.8V.2ZM97,8.7h-4.5v21.4h4.5V8.7Z"/>
      <path class="cls-2" d="M100.8,8.7h4.3v4c.8-2.6,2.8-4.2,5.8-4.2h1.8v4.4h-1.7c-4.2,0-5.7,2.7-5.7,6.8v10.5h-4.5V8.7Z"/>
      <path class="cls-1" d="M120.7,17.8c-3.3.5-6.9,1.9-6.9,6.4s3,6.3,7.1,6.3,6.3-1.7,7.7-4.3v3.9h4.2v-14.7c0-4.8-2.8-7.1-8.6-7.1s-9.2,2.2-9.9,7h4.5c.4-2.2,2.1-3.4,5.3-3.4s4.2,1,4.2,3-1.3,2.1-2.9,2.4l-4.8.6ZM128.3,21c0,3.5-2.7,5.8-6.3,5.8s-3.7-.9-3.6-2.9c0-2.4,2.1-2.8,3.8-3.1l2.8-.4c1.6-.2,2.5-.5,3.3-.8v1.3Z"/>
      <path class="cls-2" d="M138.2,24.3v-11.7h-4v-3.9h4V3.3l4.5-1.3v6.6h4.7v4h-4.7v11c0,1.8.6,2.6,2.4,2.6h2.7v3.9h-3.8c-3.9,0-5.9-1.9-5.9-5.9Z"/>
      <path class="cls-1" d="M155.1.2h-4.8v4.9h4.8V.2ZM154.9,8.7h-4.5v21.4h4.5V8.7Z"/>
      <path class="cls-1" d="M167.9,8.3c-6.3,0-10.6,4.2-10.6,11.1s4.2,11.1,10.6,11.1,10.6-4.2,10.6-11.1-4.2-11.1-10.6-11.1ZM173.9,19.4c0,4.6-2.4,6.9-6,6.9s-6-2.4-6-6.9c0-4.6,2.4-6.9,6-6.9s6,2.3,6,6.9Z"/>
      <path class="cls-2" d="M181,8.7h4.3v3.7c1.3-2.6,3.8-4.1,7.3-4.1s7.3,2.9,7.3,7.7v14.2h-4.5v-13.5c0-3-1.8-4.4-4.3-4.4s-5.7,2.3-5.7,6.3v11.5h-4.5V8.7Z"/>
      <path class="cls-2" d="M11.5,22l-10.9,1.3c-.3,0-.5-.2-.6-.5H0v-5c0-.2.2-.5.4-.5l10.9-1.3c.3,0,.5.2.6.5h0v5c0,.3-.2.5-.4.5Z"/>
      <path class="cls-2" d="M11.9,8.8v4.9c0,.3-.2.5-.5.5L.6,15.6c-.3,0-.5-.2-.6-.5H0v-5c0-.3.2-.5.5-.5l10.9-1.3c.3,0,.5.2.6.5h0Z"/>
      <path class="cls-2" d="M.4,2L11.3.6c.3,0,.5.2.6.5h0v5c0,.3-.2.5-.5.5L.6,7.9c-.3,0-.5-.2-.6-.5H0V2.5c0-.2.2-.5.4-.5Z"/>
    </g>
  </g>
</svg>