<?xml version="1.0" encoding="UTF-8"?>
<svg xmlns="http://www.w3.org/2000/svg" version="1.1" viewBox="0 0 296.4 80.1">
  <defs>
    <style>
      .cls-1 {
        fill: #afafaf;
      }
    </style>
  </defs>
  <!-- Generator: Adobe Illustrator 28.7.1, SVG Export Plug-In . SVG Version: 1.2.0 Build 142)  -->
  <g>
    <g id="Layer_1">
      <g>
        <path class="cls-1" d="M18.4,15.2h0c-3.3-3.3-3.7-8.7-.6-12.2,3.9-4.4,11.1-4,14.3,1.4,2,3.4,1.3,7.8-1.5,10.6h-.1c-3.3,3.6-8.7,3.6-12.1.2Z"/>
        <path class="cls-1" d="M61.9,2.6h0c3.4,3.4,3.4,9,0,12.5l-9.4,9.4c-6.9,6.9-18,6.9-24.9,0h0L49.4,2.6c3.5-3.5,9.1-3.5,12.5,0Z"/>
        <path class="cls-1" d="M15.2,61.7h0c-3.3,3.3-8.7,3.7-12.2.6-4.4-3.9-4-11.1,1.4-14.3,3.4-2,7.8-1.3,10.6,1.5h.1c3.5,3.4,3.5,8.9,0,12.2Z"/>
        <path class="cls-1" d="M2.6,18.2h0c3.4-3.4,9-3.4,12.5,0l9.4,9.4c6.9,6.9,6.9,18,0,24.9h0L2.6,30.7c-3.5-3.4-3.5-9,0-12.5Z"/>
        <path class="cls-1" d="M64.5,18.7h0c3.3-3.3,8.7-3.7,12.2-.6,4.4,3.9,4,11.1-1.4,14.3-3.4,2-7.8,1.3-10.6-1.5h0c-3.4-3.4-3.4-8.8,0-12.2Z"/>
        <path class="cls-1" d="M77.2,62.2h0c-3.4,3.4-9,3.4-12.5,0l-9.4-9.4c-6.9-6.9-6.9-18,0-24.9h0l21.8,21.8c3.5,3.5,3.5,9.1.1,12.5Z"/>
        <path class="cls-1" d="M61.7,64.8h0c3.3,3.3,3.7,8.7.6,12.2-3.9,4.4-11.1,4-14.3-1.4-2-3.4-1.3-7.8,1.5-10.6h0c3.3-3.5,8.7-3.5,12.1-.2Z"/>
        <path class="cls-1" d="M18.2,77.5h0c-3.4-3.4-3.4-9,0-12.5l9.4-9.4c6.9-6.9,18-6.9,24.9,0h0l-21.8,21.9c-3.5,3.4-9.1,3.4-12.5,0Z"/>
      </g>
      <g>
        <polygon class="cls-1" points="130 44.1 129.5 44.1 104.6 7.7 93.9 7.7 93.9 65.5 106.1 65.5 106.1 29.1 106.5 29.1 131.6 65.5 142.2 65.5 142.2 7.7 130 7.7 130 44.1"/>
        <path class="cls-1" d="M183,24.4c-3.2-1.9-7-2.8-11.4-2.8s-8.2.9-11.4,2.8-5.6,4.5-7.4,7.8c-1.8,3.3-2.6,7.3-2.6,11.7s.9,8.3,2.6,11.7,4.2,6,7.4,7.8c3.2,1.9,7,2.8,11.4,2.8s8.2-.9,11.4-2.8c3.2-1.9,5.6-4.5,7.4-7.8s2.6-7.3,2.6-11.7-.9-8.4-2.6-11.7-4.2-5.9-7.4-7.8ZM179.7,50.7c-.7,2-1.7,3.5-3,4.7-1.3,1.1-3,1.7-5,1.7s-3.7-.6-5.1-1.7c-1.4-1.1-2.4-2.7-3.1-4.7s-1-4.2-1-6.7.3-4.8,1-6.7,1.7-3.5,3.1-4.7c1.4-1.1,3.1-1.7,5.1-1.7s3.7.6,5,1.7c1.3,1.1,2.3,2.7,3,4.7s1,4.2,1,6.7-.3,4.7-1,6.7Z"/>
        <path class="cls-1" d="M221.4,56.3c-.6,0-1.1.2-1.7.2s-1.5,0-2.1-.4c-.6-.2-1.1-.7-1.4-1.3-.3-.6-.5-1.5-.5-2.6v-21h8.2v-9h-8.2v-10.4h-12v10.4h-5.9v9h5.9v22.6c0,2.8.6,5.2,1.8,7.1,1.2,1.9,2.9,3.2,5.1,4.1s4.7,1.3,7.6,1.2c1.6,0,2.9-.2,4-.5s1.9-.5,2.5-.7l-1.9-8.9c-.4,0-.8.1-1.4.2Z"/>
        <path class="cls-1" d="M237.7,4.4c-1.8,0-3.3.6-4.6,1.8s-1.9,2.6-1.9,4.3.6,3.1,1.9,4.3,2.8,1.8,4.6,1.8,3.3-.6,4.6-1.8,1.9-2.6,1.9-4.3-.6-3.1-1.9-4.3-2.8-1.8-4.6-1.8Z"/>
        <rect class="cls-1" x="231.6" y="22.2" width="12" height="43.3"/>
        <path class="cls-1" d="M269,15.8c.7-.8,1.9-1.2,3.7-1.2s1.4.1,2.1.2c.7.1,1.3.3,1.7.4l2.1-9c-.8-.2-1.9-.5-3.4-.8-1.5-.2-3.2-.4-5.1-.4-2.7,0-5.2.5-7.3,1.6-2.1,1-3.8,2.6-5.1,4.7-1.2,2.1-1.8,4.7-1.8,7.8v3.1h-6.1v9h6.1v34.3h12V31.2h8.6v-9h-8.6v-2.9c0-1.5.4-2.6,1.1-3.5Z"/>
        <path class="cls-1" d="M289.9,16.6c1.8,0,3.3-.6,4.6-1.8s1.9-2.6,1.9-4.3-.6-3.1-1.9-4.3-2.8-1.8-4.6-1.8-3.3.6-4.6,1.8-1.9,2.6-1.9,4.3.6,3.1,1.9,4.3,2.8,1.8,4.6,1.8Z"/>
        <rect class="cls-1" x="283.9" y="22.2" width="12" height="43.3"/>
      </g>
    </g>
  </g>
</svg>